<mxfile host="app.diagrams.net" modified="2023-08-15T13:50:29.299Z" agent="Mozilla/5.0 (Windows NT 10.0; Win64; x64) AppleWebKit/537.36 (KHTML, like Gecko) Chrome/115.0.0.0 Safari/537.36" etag="1UBMhXld-SI_SbJZ12W8" version="21.6.7" type="github">
  <diagram name="第 1 页" id="-WIHNXKfvVTFxInO3pld">
    <mxGraphModel dx="1434" dy="768" grid="1" gridSize="10" guides="1" tooltips="1" connect="1" arrows="1" fold="1" page="1" pageScale="1" pageWidth="827" pageHeight="1169" math="0" shadow="0">
      <root>
        <mxCell id="0" />
        <mxCell id="1" parent="0" />
        <mxCell id="OSD-rZQ_V-XbJ5NN2biw-14" style="edgeStyle=orthogonalEdgeStyle;rounded=0;orthogonalLoop=1;jettySize=auto;html=1;exitX=0;exitY=0.5;exitDx=0;exitDy=0;entryX=0.5;entryY=0;entryDx=0;entryDy=0;" parent="1" target="OSD-rZQ_V-XbJ5NN2biw-5" edge="1">
          <mxGeometry relative="1" as="geometry">
            <mxPoint x="326" y="127" as="sourcePoint" />
          </mxGeometry>
        </mxCell>
        <mxCell id="OSD-rZQ_V-XbJ5NN2biw-15" style="edgeStyle=orthogonalEdgeStyle;rounded=0;orthogonalLoop=1;jettySize=auto;html=1;exitX=1;exitY=0.5;exitDx=0;exitDy=0;entryX=0.5;entryY=0;entryDx=0;entryDy=0;" parent="1" target="OSD-rZQ_V-XbJ5NN2biw-6" edge="1">
          <mxGeometry relative="1" as="geometry">
            <mxPoint x="406" y="127" as="sourcePoint" />
          </mxGeometry>
        </mxCell>
        <mxCell id="OSD-rZQ_V-XbJ5NN2biw-8" style="edgeStyle=orthogonalEdgeStyle;rounded=0;orthogonalLoop=1;jettySize=auto;html=1;exitX=1;exitY=0.5;exitDx=0;exitDy=0;entryX=0;entryY=0.5;entryDx=0;entryDy=0;" parent="1" source="OSD-rZQ_V-XbJ5NN2biw-5" target="OSD-rZQ_V-XbJ5NN2biw-6" edge="1">
          <mxGeometry relative="1" as="geometry" />
        </mxCell>
        <mxCell id="OSD-rZQ_V-XbJ5NN2biw-12" value="升级" style="edgeLabel;html=1;align=center;verticalAlign=middle;resizable=0;points=[];" parent="OSD-rZQ_V-XbJ5NN2biw-8" vertex="1" connectable="0">
          <mxGeometry x="-0.0554" y="-1" relative="1" as="geometry">
            <mxPoint x="-3" y="-1" as="offset" />
          </mxGeometry>
        </mxCell>
        <mxCell id="OSD-rZQ_V-XbJ5NN2biw-87" style="edgeStyle=orthogonalEdgeStyle;rounded=0;orthogonalLoop=1;jettySize=auto;html=1;exitX=0;exitY=0.5;exitDx=0;exitDy=0;entryX=0;entryY=0.5;entryDx=0;entryDy=0;" parent="1" source="OSD-rZQ_V-XbJ5NN2biw-5" target="OSD-rZQ_V-XbJ5NN2biw-44" edge="1">
          <mxGeometry relative="1" as="geometry">
            <Array as="points">
              <mxPoint x="16" y="192" />
              <mxPoint x="16" y="525" />
            </Array>
          </mxGeometry>
        </mxCell>
        <mxCell id="OSD-rZQ_V-XbJ5NN2biw-89" value="通知" style="edgeLabel;html=1;align=center;verticalAlign=middle;resizable=0;points=[];" parent="OSD-rZQ_V-XbJ5NN2biw-87" vertex="1" connectable="0">
          <mxGeometry x="0.4963" y="-1" relative="1" as="geometry">
            <mxPoint as="offset" />
          </mxGeometry>
        </mxCell>
        <mxCell id="OSD-rZQ_V-XbJ5NN2biw-5" value="事件" style="rounded=0;whiteSpace=wrap;html=1;" parent="1" vertex="1">
          <mxGeometry x="186" y="177" width="60" height="30" as="geometry" />
        </mxCell>
        <mxCell id="OSD-rZQ_V-XbJ5NN2biw-67" style="edgeStyle=orthogonalEdgeStyle;rounded=0;orthogonalLoop=1;jettySize=auto;html=1;exitX=0.5;exitY=1;exitDx=0;exitDy=0;entryX=0.5;entryY=0;entryDx=0;entryDy=0;" parent="1" source="OSD-rZQ_V-XbJ5NN2biw-6" target="OSD-rZQ_V-XbJ5NN2biw-62" edge="1">
          <mxGeometry relative="1" as="geometry" />
        </mxCell>
        <mxCell id="OSD-rZQ_V-XbJ5NN2biw-88" style="edgeStyle=orthogonalEdgeStyle;rounded=0;orthogonalLoop=1;jettySize=auto;html=1;exitX=1;exitY=0.5;exitDx=0;exitDy=0;entryX=1;entryY=0.5;entryDx=0;entryDy=0;" parent="1" source="OSD-rZQ_V-XbJ5NN2biw-6" target="OSD-rZQ_V-XbJ5NN2biw-44" edge="1">
          <mxGeometry relative="1" as="geometry">
            <Array as="points">
              <mxPoint x="766" y="192" />
              <mxPoint x="766" y="525" />
            </Array>
          </mxGeometry>
        </mxCell>
        <mxCell id="OSD-rZQ_V-XbJ5NN2biw-90" value="通知" style="edgeLabel;html=1;align=center;verticalAlign=middle;resizable=0;points=[];" parent="OSD-rZQ_V-XbJ5NN2biw-88" vertex="1" connectable="0">
          <mxGeometry x="0.6065" y="-1" relative="1" as="geometry">
            <mxPoint as="offset" />
          </mxGeometry>
        </mxCell>
        <mxCell id="OSD-rZQ_V-XbJ5NN2biw-6" value="故障" style="rounded=0;whiteSpace=wrap;html=1;" parent="1" vertex="1">
          <mxGeometry x="506" y="177" width="60" height="30" as="geometry" />
        </mxCell>
        <mxCell id="OSD-rZQ_V-XbJ5NN2biw-26" style="edgeStyle=orthogonalEdgeStyle;rounded=0;orthogonalLoop=1;jettySize=auto;html=1;exitX=1;exitY=0.5;exitDx=0;exitDy=0;entryX=0;entryY=0.5;entryDx=0;entryDy=0;" parent="1" source="OSD-rZQ_V-XbJ5NN2biw-17" target="OSD-rZQ_V-XbJ5NN2biw-19" edge="1">
          <mxGeometry relative="1" as="geometry" />
        </mxCell>
        <mxCell id="OSD-rZQ_V-XbJ5NN2biw-17" value="分配" style="rounded=0;whiteSpace=wrap;html=1;" parent="1" vertex="1">
          <mxGeometry x="66" y="359" width="60" height="30" as="geometry" />
        </mxCell>
        <mxCell id="OSD-rZQ_V-XbJ5NN2biw-27" style="edgeStyle=orthogonalEdgeStyle;rounded=0;orthogonalLoop=1;jettySize=auto;html=1;exitX=1;exitY=0.5;exitDx=0;exitDy=0;entryX=0;entryY=0.5;entryDx=0;entryDy=0;" parent="1" source="OSD-rZQ_V-XbJ5NN2biw-19" target="OSD-rZQ_V-XbJ5NN2biw-20" edge="1">
          <mxGeometry relative="1" as="geometry" />
        </mxCell>
        <mxCell id="OSD-rZQ_V-XbJ5NN2biw-19" value="响应" style="rounded=0;whiteSpace=wrap;html=1;" parent="1" vertex="1">
          <mxGeometry x="186" y="359" width="60" height="30" as="geometry" />
        </mxCell>
        <mxCell id="OSD-rZQ_V-XbJ5NN2biw-20" value="完成" style="rounded=0;whiteSpace=wrap;html=1;" parent="1" vertex="1">
          <mxGeometry x="306" y="359" width="60" height="30" as="geometry" />
        </mxCell>
        <mxCell id="OSD-rZQ_V-XbJ5NN2biw-68" style="edgeStyle=orthogonalEdgeStyle;rounded=0;orthogonalLoop=1;jettySize=auto;html=1;exitX=1;exitY=0.5;exitDx=0;exitDy=0;entryX=0;entryY=0.5;entryDx=0;entryDy=0;" parent="1" source="OSD-rZQ_V-XbJ5NN2biw-28" target="OSD-rZQ_V-XbJ5NN2biw-29" edge="1">
          <mxGeometry relative="1" as="geometry" />
        </mxCell>
        <mxCell id="OSD-rZQ_V-XbJ5NN2biw-28" value="处理中" style="rounded=0;whiteSpace=wrap;html=1;" parent="1" vertex="1">
          <mxGeometry x="406" y="359" width="60" height="30" as="geometry" />
        </mxCell>
        <mxCell id="OSD-rZQ_V-XbJ5NN2biw-69" style="edgeStyle=orthogonalEdgeStyle;rounded=0;orthogonalLoop=1;jettySize=auto;html=1;exitX=1;exitY=0.5;exitDx=0;exitDy=0;entryX=0;entryY=0.5;entryDx=0;entryDy=0;" parent="1" source="OSD-rZQ_V-XbJ5NN2biw-29" target="OSD-rZQ_V-XbJ5NN2biw-30" edge="1">
          <mxGeometry relative="1" as="geometry" />
        </mxCell>
        <mxCell id="OSD-rZQ_V-XbJ5NN2biw-29" value="已恢复" style="rounded=0;whiteSpace=wrap;html=1;" parent="1" vertex="1">
          <mxGeometry x="506" y="359" width="60" height="30" as="geometry" />
        </mxCell>
        <mxCell id="OSD-rZQ_V-XbJ5NN2biw-70" style="edgeStyle=orthogonalEdgeStyle;rounded=0;orthogonalLoop=1;jettySize=auto;html=1;exitX=1;exitY=0.5;exitDx=0;exitDy=0;entryX=0;entryY=0.5;entryDx=0;entryDy=0;" parent="1" source="OSD-rZQ_V-XbJ5NN2biw-30" target="OSD-rZQ_V-XbJ5NN2biw-31" edge="1">
          <mxGeometry relative="1" as="geometry" />
        </mxCell>
        <mxCell id="OSD-rZQ_V-XbJ5NN2biw-30" value="复盘中" style="rounded=0;whiteSpace=wrap;html=1;" parent="1" vertex="1">
          <mxGeometry x="596" y="359" width="60" height="30" as="geometry" />
        </mxCell>
        <mxCell id="OSD-rZQ_V-XbJ5NN2biw-31" value="已复盘" style="rounded=0;whiteSpace=wrap;html=1;" parent="1" vertex="1">
          <mxGeometry x="686" y="359" width="60" height="30" as="geometry" />
        </mxCell>
        <mxCell id="OSD-rZQ_V-XbJ5NN2biw-43" value="用户" style="swimlane;fontStyle=0;childLayout=stackLayout;horizontal=1;startSize=30;horizontalStack=0;resizeParent=1;resizeParentMax=0;resizeLast=0;collapsible=1;marginBottom=0;whiteSpace=wrap;html=1;" parent="1" vertex="1">
          <mxGeometry x="296" y="480" width="140" height="120" as="geometry">
            <mxRectangle x="430" y="370" width="60" height="30" as="alternateBounds" />
          </mxGeometry>
        </mxCell>
        <mxCell id="OSD-rZQ_V-XbJ5NN2biw-44" value="管理层" style="text;strokeColor=none;fillColor=none;align=left;verticalAlign=middle;spacingLeft=4;spacingRight=4;overflow=hidden;points=[[0,0.5],[1,0.5]];portConstraint=eastwest;rotatable=0;whiteSpace=wrap;html=1;" parent="OSD-rZQ_V-XbJ5NN2biw-43" vertex="1">
          <mxGeometry y="30" width="140" height="30" as="geometry" />
        </mxCell>
        <mxCell id="OSD-rZQ_V-XbJ5NN2biw-45" value="研发人员" style="text;strokeColor=none;fillColor=none;align=left;verticalAlign=middle;spacingLeft=4;spacingRight=4;overflow=hidden;points=[[0,0.5],[1,0.5]];portConstraint=eastwest;rotatable=0;whiteSpace=wrap;html=1;" parent="OSD-rZQ_V-XbJ5NN2biw-43" vertex="1">
          <mxGeometry y="60" width="140" height="30" as="geometry" />
        </mxCell>
        <mxCell id="OSD-rZQ_V-XbJ5NN2biw-46" value="运维人员" style="text;strokeColor=none;fillColor=none;align=left;verticalAlign=middle;spacingLeft=4;spacingRight=4;overflow=hidden;points=[[0,0.5],[1,0.5]];portConstraint=eastwest;rotatable=0;whiteSpace=wrap;html=1;" parent="OSD-rZQ_V-XbJ5NN2biw-43" vertex="1">
          <mxGeometry y="90" width="140" height="30" as="geometry" />
        </mxCell>
        <mxCell id="OSD-rZQ_V-XbJ5NN2biw-78" style="edgeStyle=orthogonalEdgeStyle;rounded=0;orthogonalLoop=1;jettySize=auto;html=1;exitX=0.5;exitY=1;exitDx=0;exitDy=0;entryX=0.5;entryY=0;entryDx=0;entryDy=0;" parent="1" source="OSD-rZQ_V-XbJ5NN2biw-54" edge="1">
          <mxGeometry relative="1" as="geometry">
            <mxPoint x="366" y="107" as="targetPoint" />
          </mxGeometry>
        </mxCell>
        <mxCell id="OSD-rZQ_V-XbJ5NN2biw-54" value="触发规则" style="ellipse;whiteSpace=wrap;html=1;" parent="1" vertex="1">
          <mxGeometry x="326" y="20" width="80" height="40" as="geometry" />
        </mxCell>
        <mxCell id="OSD-rZQ_V-XbJ5NN2biw-60" value="" style="edgeStyle=orthogonalEdgeStyle;rounded=0;orthogonalLoop=1;jettySize=auto;html=1;exitX=0.5;exitY=1;exitDx=0;exitDy=0;entryX=0.5;entryY=0;entryDx=0;entryDy=0;" parent="1" source="OSD-rZQ_V-XbJ5NN2biw-5" target="OSD-rZQ_V-XbJ5NN2biw-58" edge="1">
          <mxGeometry relative="1" as="geometry">
            <mxPoint x="216" y="207" as="sourcePoint" />
            <mxPoint x="336" y="317" as="targetPoint" />
          </mxGeometry>
        </mxCell>
        <mxCell id="OSD-rZQ_V-XbJ5NN2biw-61" value="" style="edgeStyle=orthogonalEdgeStyle;rounded=0;orthogonalLoop=1;jettySize=auto;html=1;exitX=0.5;exitY=1;exitDx=0;exitDy=0;entryX=0.5;entryY=0;entryDx=0;entryDy=0;" parent="1" source="OSD-rZQ_V-XbJ5NN2biw-5" target="OSD-rZQ_V-XbJ5NN2biw-58" edge="1">
          <mxGeometry relative="1" as="geometry">
            <mxPoint x="216" y="207" as="sourcePoint" />
            <mxPoint x="216" y="317" as="targetPoint" />
          </mxGeometry>
        </mxCell>
        <mxCell id="OSD-rZQ_V-XbJ5NN2biw-71" style="edgeStyle=orthogonalEdgeStyle;rounded=0;orthogonalLoop=1;jettySize=auto;html=1;exitX=0.5;exitY=1;exitDx=0;exitDy=0;entryX=0.5;entryY=0;entryDx=0;entryDy=0;" parent="1" source="OSD-rZQ_V-XbJ5NN2biw-58" target="OSD-rZQ_V-XbJ5NN2biw-19" edge="1">
          <mxGeometry relative="1" as="geometry" />
        </mxCell>
        <mxCell id="OSD-rZQ_V-XbJ5NN2biw-72" style="edgeStyle=orthogonalEdgeStyle;rounded=0;orthogonalLoop=1;jettySize=auto;html=1;exitX=0.5;exitY=1;exitDx=0;exitDy=0;" parent="1" source="OSD-rZQ_V-XbJ5NN2biw-58" target="OSD-rZQ_V-XbJ5NN2biw-17" edge="1">
          <mxGeometry relative="1" as="geometry" />
        </mxCell>
        <mxCell id="OSD-rZQ_V-XbJ5NN2biw-73" style="edgeStyle=orthogonalEdgeStyle;rounded=0;orthogonalLoop=1;jettySize=auto;html=1;exitX=0.5;exitY=1;exitDx=0;exitDy=0;entryX=0.5;entryY=0;entryDx=0;entryDy=0;" parent="1" source="OSD-rZQ_V-XbJ5NN2biw-58" target="OSD-rZQ_V-XbJ5NN2biw-20" edge="1">
          <mxGeometry relative="1" as="geometry" />
        </mxCell>
        <mxCell id="OSD-rZQ_V-XbJ5NN2biw-58" value="事件处理&lt;br&gt;" style="rounded=0;whiteSpace=wrap;html=1;" parent="1" vertex="1">
          <mxGeometry x="186" y="247" width="60" height="30" as="geometry" />
        </mxCell>
        <mxCell id="OSD-rZQ_V-XbJ5NN2biw-74" style="edgeStyle=orthogonalEdgeStyle;rounded=0;orthogonalLoop=1;jettySize=auto;html=1;exitX=0.5;exitY=1;exitDx=0;exitDy=0;entryX=0.5;entryY=0;entryDx=0;entryDy=0;" parent="1" source="OSD-rZQ_V-XbJ5NN2biw-62" target="OSD-rZQ_V-XbJ5NN2biw-29" edge="1">
          <mxGeometry relative="1" as="geometry" />
        </mxCell>
        <mxCell id="OSD-rZQ_V-XbJ5NN2biw-75" style="edgeStyle=orthogonalEdgeStyle;rounded=0;orthogonalLoop=1;jettySize=auto;html=1;exitX=0.5;exitY=1;exitDx=0;exitDy=0;entryX=0.5;entryY=0;entryDx=0;entryDy=0;" parent="1" source="OSD-rZQ_V-XbJ5NN2biw-62" target="OSD-rZQ_V-XbJ5NN2biw-28" edge="1">
          <mxGeometry relative="1" as="geometry" />
        </mxCell>
        <mxCell id="OSD-rZQ_V-XbJ5NN2biw-76" style="edgeStyle=orthogonalEdgeStyle;rounded=0;orthogonalLoop=1;jettySize=auto;html=1;exitX=0.5;exitY=1;exitDx=0;exitDy=0;entryX=0.5;entryY=0;entryDx=0;entryDy=0;" parent="1" source="OSD-rZQ_V-XbJ5NN2biw-62" target="OSD-rZQ_V-XbJ5NN2biw-30" edge="1">
          <mxGeometry relative="1" as="geometry" />
        </mxCell>
        <mxCell id="OSD-rZQ_V-XbJ5NN2biw-77" style="edgeStyle=orthogonalEdgeStyle;rounded=0;orthogonalLoop=1;jettySize=auto;html=1;exitX=0.5;exitY=1;exitDx=0;exitDy=0;entryX=0.5;entryY=0;entryDx=0;entryDy=0;" parent="1" source="OSD-rZQ_V-XbJ5NN2biw-62" target="OSD-rZQ_V-XbJ5NN2biw-31" edge="1">
          <mxGeometry relative="1" as="geometry" />
        </mxCell>
        <mxCell id="OSD-rZQ_V-XbJ5NN2biw-62" value="故障处理" style="rounded=0;whiteSpace=wrap;html=1;" parent="1" vertex="1">
          <mxGeometry x="506" y="247" width="60" height="30" as="geometry" />
        </mxCell>
        <mxCell id="OSD-rZQ_V-XbJ5NN2biw-80" value="创建工单" style="rounded=1;whiteSpace=wrap;html=1;" parent="1" vertex="1">
          <mxGeometry x="321" y="110" width="90" height="40" as="geometry" />
        </mxCell>
        <mxCell id="AnqzCqNc_b7Of7x_9liy-7" style="edgeStyle=orthogonalEdgeStyle;rounded=0;orthogonalLoop=1;jettySize=auto;html=1;exitX=1;exitY=0.5;exitDx=0;exitDy=0;" parent="1" source="AnqzCqNc_b7Of7x_9liy-1" edge="1">
          <mxGeometry relative="1" as="geometry">
            <mxPoint x="320" y="40" as="targetPoint" />
          </mxGeometry>
        </mxCell>
        <mxCell id="AnqzCqNc_b7Of7x_9liy-1" value="烽火台" style="ellipse;whiteSpace=wrap;html=1;" parent="1" vertex="1">
          <mxGeometry x="30" y="20" width="80" height="40" as="geometry" />
        </mxCell>
        <mxCell id="AnqzCqNc_b7Of7x_9liy-6" style="edgeStyle=orthogonalEdgeStyle;rounded=0;orthogonalLoop=1;jettySize=auto;html=1;exitX=0;exitY=0.5;exitDx=0;exitDy=0;" parent="1" source="AnqzCqNc_b7Of7x_9liy-3" edge="1">
          <mxGeometry relative="1" as="geometry">
            <mxPoint x="410" y="40" as="targetPoint" />
          </mxGeometry>
        </mxCell>
        <mxCell id="AnqzCqNc_b7Of7x_9liy-3" value="配置中心" style="ellipse;whiteSpace=wrap;html=1;" parent="1" vertex="1">
          <mxGeometry x="630" y="20" width="80" height="40" as="geometry" />
        </mxCell>
        <mxCell id="AnqzCqNc_b7Of7x_9liy-4" style="edgeStyle=orthogonalEdgeStyle;rounded=0;orthogonalLoop=1;jettySize=auto;html=1;exitX=1;exitY=0.5;exitDx=0;exitDy=0;entryX=1;entryY=0.5;entryDx=0;entryDy=0;" parent="1" source="OSD-rZQ_V-XbJ5NN2biw-45" target="AnqzCqNc_b7Of7x_9liy-3" edge="1">
          <mxGeometry relative="1" as="geometry">
            <mxPoint x="800" y="50" as="targetPoint" />
            <Array as="points">
              <mxPoint x="810" y="555" />
              <mxPoint x="810" y="40" />
            </Array>
          </mxGeometry>
        </mxCell>
      </root>
    </mxGraphModel>
  </diagram>
</mxfile>
